<?xml version="1.0" encoding="utf-8"?>
<svg version="1.1" xmlns="http://www.w3.org/2000/svg" xmlns:xlink="http://www.w3.org/1999/xlink" viewBox="0 0 300 179.17">
<defs>
<style>
.cls-1{fill:#9fa0a0;}
.cls-2{fill:#231815;}
</style>
</defs>
<title>森ビル株式会社ロゴ</title>
<path class="cls-1" d="M68.09,7.16h43.52c2.39,0,6,.18,6,.18,9,.47,18.39.36,20.3,5.63h.44V10.55c0-7-9.3-10.32-20.3-10.32,0,0-8.78-.23-6.39-.23H26.69c2.39,0-6.39.23-6.39.23C8.65.6,0,7.59,0,14.35v6l.44,0C1.71,10,11.72,7.81,20.74,7.34c0,0,3.56-.18,6-.18Z"/><path class="cls-1" d="M68.09,21.65h43.52c2.39,0,6,.19,6,.19,9,.46,18.39.36,20.3,5.63h.44V25.05c0-7-9.3-10.32-20.3-10.32,0,0-8.78-.23-6.39-.23H26.69c2.39,0-6.39.23-6.39.23C8.65,15.1,0,22.09,0,28.85v6l.44,0c1.27-10.45,11.28-12.6,20.3-13.06,0,0,3.56-.19,6-.19Z"/><path class="cls-1" d="M231.89,7.16H188.36c-2.39,0-6,.18-6,.18-9,.47-18.39.36-20.3,5.63h-.44V10.55c0-7,9.31-10.32,20.3-10.32,0,0,8.78-.23,6.39-.23h84.92c-2.39,0,6.39.23,6.39.23C291.32.6,300,7.59,300,14.35v6l-.45,0C298.26,10,288.25,7.81,279.23,7.34c0,0-3.56-.18-6-.18Z"/><path class="cls-1" d="M231.89,21.65H188.36c-2.39,0-6,.19-6,.19-9,.46-18.39.36-20.3,5.63h-.44V25.05c0-7,9.31-10.32,20.3-10.32,0,0,8.78-.23,6.39-.23h84.92c-2.39,0,6.39.23,6.39.23C291.32,15.1,300,22.09,300,28.85v6l-.45,0c-1.27-10.45-11.28-12.6-20.3-13.06,0,0-3.56-.19-6-.19Z"/><path class="cls-1" d="M26.69,36.27h41.4l0-7.16H26.69c2.39,0-6.39.23-6.39.23C8.65,29.71,0,36.7,0,43.46v6l.44.06c1.27-10.45,11.28-12.6,20.3-13.07C20.74,36.45,24.3,36.27,26.69,36.27Z"/><path class="cls-1" d="M26.69,50.62h41.4l0-7.16H26.69c2.39,0-6.39.23-6.39.23C8.65,44.06,0,51.05,0,57.81v6l.44,0C1.71,53.41,11.72,51.27,20.74,50.8,20.74,50.8,24.3,50.62,26.69,50.62Z"/><path class="cls-1" d="M26.69,65.17h41.4l0-7.15H26.69c2.39,0-6.39.23-6.39.23C8.65,58.61,0,65.61,0,72.36v6l.44,0C1.71,68,11.72,65.82,20.74,65.35,20.74,65.35,24.3,65.17,26.69,65.17Z"/><path class="cls-1" d="M26.69,79.73h41.4l0-7.16H26.69c2.39,0-6.39.23-6.39.23C8.65,73.17,0,80.16,0,86.92v6l.44,0c1.27-10.44,11.28-12.59,20.3-13.06C20.74,79.91,24.3,79.73,26.69,79.73Z"/><path class="cls-1" d="M26.69,94.18h41.4l0-7.16H26.69c2.39,0-6.39.24-6.39.24C8.65,87.62,0,94.61,0,101.37v6l.44.06C1.71,97,11.72,94.83,20.74,94.36,20.74,94.36,24.3,94.18,26.69,94.18Z"/><path class="cls-1" d="M273.31,36.27h-41.4l0-7.16h41.38c-2.39,0,6.39.23,6.39.23,11.65.37,20.3,7.36,20.3,14.12v6l-.44.06c-1.27-10.45-11.28-12.6-20.3-13.07C279.26,36.45,275.7,36.27,273.31,36.27Z"/><path class="cls-1" d="M273.31,50.62h-41.4l0-7.16h41.38c-2.39,0,6.39.23,6.39.23,11.65.37,20.3,7.36,20.3,14.12v6l-.44,0c-1.27-10.45-11.28-12.59-20.3-13.06C279.26,50.8,275.7,50.62,273.31,50.62Z"/><path class="cls-1" d="M273.31,65.17h-41.4l0-7.15h41.38c-2.39,0,6.39.23,6.39.23,11.65.36,20.3,7.36,20.3,14.11v6l-.44,0c-1.27-10.45-11.28-12.6-20.3-13.07C279.26,65.35,275.7,65.17,273.31,65.17Z"/><path class="cls-1" d="M273.31,79.73h-41.4l0-7.16h41.38c-2.39,0,6.39.23,6.39.23,11.65.37,20.3,7.36,20.3,14.12v6l-.44,0c-1.27-10.44-11.28-12.59-20.3-13.06C279.26,79.91,275.7,79.73,273.31,79.73Z"/><path class="cls-1" d="M273.31,94.18h-41.4l0-7.16h41.38c-2.39,0,6.39.24,6.39.24,11.65.36,20.3,7.35,20.3,14.11v6l-.44.06c-1.27-10.45-11.28-12.6-20.3-13.07C279.26,94.36,275.7,94.18,273.31,94.18Z"/><path class="cls-1" d="M150,36.3c2.21,0,8,0,10.39,0s5.32,0,8.79.26c4.24.27,17.26-.72,21,8.27l.44-.05,0-5.73c-1.44-7.72-16.39-9.22-20.28-9.41-2-.09-6.05-.4-9.72-.4-2.14,0-10.55-.05-10.55-.05s-8.24.05-10.55.05c-3.68,0-7.77.31-9.73.4-3.89.19-18.83,1.69-20.27,9.41l0,5.73.45.05c3.69-9,16.71-8,21-8.27,3.46-.23,6.39-.26,8.78-.26S147.74,36.3,150,36.3Z"/><path class="cls-1" d="M150,50.73c2.21,0,8,0,10.39,0s5.32,0,8.79.26c4.24.27,17.26-.71,21,8.28l.44,0,0-5.73c-1.44-7.72-16.39-9.23-20.28-9.41-2-.09-6.05-.4-9.72-.4-2.14,0-10.55-.06-10.55-.06s-8.24.06-10.55.06c-3.68,0-7.77.31-9.73.4-3.89.18-18.83,1.69-20.27,9.41l0,5.73.45,0c3.69-9,16.71-8,21-8.28,3.46-.22,6.39-.26,8.78-.26S147.74,50.73,150,50.73Z"/><path class="cls-1" d="M150,65.33c2.21,0,8,0,10.39,0s5.32,0,8.79.26c4.24.27,17.26-.71,21,8.28l.44,0,0-5.73c-1.44-7.72-16.39-9.23-20.28-9.41-2-.09-6.05-.4-9.72-.4-2.14,0-10.55-.06-10.55-.06s-8.24.06-10.55.06c-3.68,0-7.77.31-9.73.4-3.89.18-18.83,1.69-20.27,9.41l0,5.73.45,0c3.69-9,16.71-8,21-8.28,3.46-.23,6.39-.26,8.78-.26S147.74,65.33,150,65.33Z"/><path class="cls-1" d="M150,79.84c2.21,0,8,0,10.39,0s5.32,0,8.79.26c4.24.27,17.26-.71,21,8.28l.44,0,0-5.73c-1.44-7.72-16.39-9.23-20.28-9.41-2-.09-6.05-.4-9.72-.4-2.14,0-10.55,0-10.55,0s-8.24,0-10.55,0c-3.68,0-7.77.31-9.73.4-3.89.18-18.83,1.69-20.27,9.41l0,5.73.45,0c3.69-9,16.71-8,21-8.28,3.46-.22,6.39-.26,8.78-.26S147.74,79.84,150,79.84Z"/><path class="cls-1" d="M150,94.3c2.21,0,8,0,10.39,0s5.32,0,8.79.26c4.24.27,17.26-.71,21,8.28l.44-.05,0-5.73c-1.44-7.72-16.39-9.23-20.28-9.41-2-.09-6.05-.4-9.72-.4-2.14,0-10.55,0-10.55,0s-8.24,0-10.55,0c-3.68,0-7.77.31-9.73.4-3.89.18-18.83,1.69-20.27,9.41l0,5.73.45.05c3.69-9,16.71-8,21-8.28,3.46-.22,6.39-.26,8.78-.26S147.74,94.3,150,94.3Z"/><polygon class="cls-2" points="28.74 147.79 29.66 148.51 22.94 169.37 14.91 145.34 1.02 145.34 1.02 147.54 1.98 148.57 1.98 178.42 9.25 178.42 9.25 151.24 9.54 151.24 18.86 178.42 26.21 178.42 35.58 151.24 35.87 151.24 35.87 178.42 43.59 178.42 43.59 145.34 28.74 145.34 28.74 147.79"/><path class="cls-2" d="M116.23,144.47c-5.65,0-9.63,1.46-12.56,4.6s-4.35,7.54-4.35,12.93c0,10.91,6,17.17,16.45,17.17s16.67-6.51,16.67-17.42S126.38,144.47,116.23,144.47Zm-.29,6.11c7,0,8.48,6.06,8.48,11.14,0,7.57-2.85,11.25-8.73,11.25-5.52,0-8.32-3.76-8.32-11.17C107.37,156.68,108.86,150.58,115.94,150.58Z"/><path class="cls-2" d="M217.91,165.82l-2.46-1.62-.77-2.18c4.67-1.35,6.85-3.9,6.85-8,0-3.46-1.94-6.15-5.46-7.56-2.16-.86-3.93-1.11-7.89-1.11H191.3v2.21l1,1v29.85h7.93V164.87h10l4.55,13.55h8L219,167.22A2.94,2.94,0,0,0,217.91,165.82Zm-17.72-14.58h7.07c5.69,0,6.46,2,6.46,4,0,2.38-1.19,4-6.95,4h-6.58Z"/><polygon class="cls-2" points="296.75 175.18 296.75 145.34 287.82 145.34 287.82 147.54 288.78 148.57 288.78 175.19 287.82 175.97 287.82 178.42 297.75 178.42 297.75 175.97 296.75 175.18"/></svg>